<svg width="126" height="26" viewBox="0 0 126 26" fill="none" xmlns="http://www.w3.org/2000/svg">
<path d="M7.80957 9.34473L0.988281 17.2617V21H13.5352V17.2617H6.48828L13.3096 9.34473V5.5957H1.32129V9.34473H7.80957ZM25.0947 14.4043H22.2373L23.666 9.89258L25.0947 14.4043ZM26.1904 17.7021L27.2969 21H31.8086L25.9756 5.5957H21.3564L15.5234 21H20.0352L21.1309 17.7021H26.1904ZM40.4033 15.167L44.249 21H49.0938L43.1533 11.9766L48.6533 5.5957H43.8086L38.749 11.5361V5.5957H34.5703V21H38.749V17.0361L40.4033 15.167ZM59.4502 14.4043H56.5928L58.0215 9.89258L59.4502 14.4043ZM60.5459 17.7021L61.6523 21H66.1641L60.3311 5.5957H55.7119L49.8789 21H54.3906L55.4863 17.7021H60.5459ZM74.9736 9.34473L68.1523 17.2617V21H80.6992V17.2617H73.6523L80.4736 9.34473V5.5957H68.4854V9.34473H74.9736ZM83.5684 19.2383C83.5684 19.7969 83.7617 20.2695 84.1592 20.6455C84.5566 21.0322 85.0508 21.2148 85.6523 21.2148C86.2539 21.2148 86.748 21.0322 87.1455 20.6455C87.543 20.2695 87.7471 19.7969 87.7471 19.2383C87.7471 18.6797 87.543 18.2178 87.1455 17.8311C86.748 17.4551 86.2539 17.2617 85.6523 17.2617C85.0508 17.2617 84.5566 17.4551 84.1592 17.8311C83.7617 18.2178 83.5684 18.6797 83.5684 19.2383ZM98.3076 17.7021C97.5234 17.7021 96.8467 17.4121 96.2881 16.8105C95.7295 16.2197 95.4502 15.4893 95.4502 14.6191V5.5957H91.2715V14.6191C91.2715 16.5527 91.9375 18.1748 93.2695 19.4854C94.6016 20.7959 96.2773 21.4404 98.3076 21.4404C100.327 21.4404 102.014 20.7959 103.346 19.4854C104.678 18.1748 105.344 16.5527 105.344 14.6191V5.5957H101.165V14.6191C101.165 15.4893 100.875 16.2197 100.316 16.8105C99.7578 17.4121 99.0811 17.7021 98.3076 17.7021ZM117.569 14.4043H114.712L116.141 9.89258L117.569 14.4043ZM118.665 17.7021L119.771 21H124.283L118.45 5.5957H113.831L107.998 21H112.51L113.605 17.7021H118.665Z" fill="white"/>
</svg>
